<?xml version="1.0" encoding="UTF-8" standalone="no"?>
<svg width="20px" height="9px" viewBox="0 0 20 9" version="1.1" xmlns="http://www.w3.org/2000/svg" xmlns:xlink="http://www.w3.org/1999/xlink">
    <!-- Generator: sketchtool 39.1 (31720) - http://www.bohemiancoding.com/sketch -->
    <title>88E197BA-CA1E-45D4-9862-A27E139E6BDF</title>
    <desc>Created with sketchtool.</desc>
    <defs></defs>
    <g id="Homepage-Design" stroke="none" stroke-width="1" fill="none" fill-rule="evenodd">
        <g id="Heysen_Rollout" transform="translate(-710.000000, -916.000000)" fill="#E8E2D5">
            <g id="/-Header-Hero" transform="translate(-9.000000, -104.000000)">
                <g id="Scroll-Down" transform="translate(675.000000, 1020.000000)">
                    <path d="M58.7130592,3.91511159 L51.4959498,-4.74262128 C51.1973709,-5.10139119 50.663308,-5.14996636 50.3048021,-4.85033145 C49.9455042,-4.55016855 49.896929,-4.01821759 50.1960359,-3.65918369 L56.961977,4.45709438 L50.1960359,12.5728445 C49.897457,12.9326704 49.9460322,13.4648853 50.3048021,13.7645202 C50.663044,14.0641551 51.1973709,14.01558 51.4959498,13.6568101 L58.7130592,4.99960517 C58.844529,4.84226384 58.9099998,4.64954711 58.9099998,4.45709438 C58.9099998,4.26437766 58.844529,4.07192493 58.7130592,3.91511159 L58.7130592,3.91511159 Z" id="Arrow" transform="translate(54.455000, 4.457094) scale(-1, 1) rotate(-270.000000) translate(-54.455000, -4.457094) "></path>
                </g>
            </g>
        </g>
    </g>
</svg>