<svg xmlns="http://www.w3.org/2000/svg" width="147.335" height="8.88" viewBox="0 0 147.335 8.88">
  <g id="Group_5" data-name="Group 5" transform="translate(120.46 -169.25)">
    <path id="Path_26" data-name="Path 26" d="M-117.184,170.018h-.552v7a.772.772,0,0,0,.234.534.728.728,0,0,0,.534.222h.156v.12h-3.648v-.12h.156a.73.73,0,0,0,.66-.372.838.838,0,0,0,.108-.372v-6.66a.772.772,0,0,0-.234-.534.728.728,0,0,0-.534-.222h-.156v-.12h4.116a3.635,3.635,0,0,1,1.968.5,1.8,1.8,0,0,1,.648.7,2.5,2.5,0,0,1,.24,1.176,2.3,2.3,0,0,1-.5,1.4,1.98,1.98,0,0,1-1.464.768,2.373,2.373,0,0,1,1.224,1.056,9.117,9.117,0,0,0,1.92,2.472,1.542,1.542,0,0,0,.78.2v.12h-1.176a4.7,4.7,0,0,1-1.734-.276,2.149,2.149,0,0,1-1.086-.972q-.228-.4-1-2.052-.336-.732-.816-.8v-.12h.372a1.5,1.5,0,0,0,.954-.324,1.7,1.7,0,0,0,.558-1.056,2.255,2.255,0,0,0,.048-.4,2.09,2.09,0,0,0-.4-1.422,1.35,1.35,0,0,0-1.02-.45Z" fill="#212121"/>
    <path id="Path_27" data-name="Path 27" d="M-111.52,177.77a.728.728,0,0,0,.534-.222.772.772,0,0,0,.234-.534V170.33a.667.667,0,0,0-.18-.456.876.876,0,0,0-.588-.264h-.156v-.12h4.6a4.363,4.363,0,0,0,.972-.09,4.1,4.1,0,0,0,.468-.126v2.1l-.12-.012v-.132a1.114,1.114,0,0,0-.552-1.056,1.292,1.292,0,0,0-.624-.168h-2.016V173.5h1.584a1.018,1.018,0,0,0,.732-.306,1,1,0,0,0,.288-.726v-.108h.12v2.772h-.12v-.1a1,1,0,0,0-.282-.732,1,1,0,0,0-.714-.3h-1.608v3.372h1.572a2.194,2.194,0,0,0,1.47-.5,2.979,2.979,0,0,0,.882-1.428h.12l-.552,2.448h-6.216v-.12Z" fill="#212121"/>
    <path id="Path_28" data-name="Path 28" d="M-104.008,176.774a2.789,2.789,0,0,1,.372-1.476h.108a1.546,1.546,0,0,0-.012.192,2.02,2.02,0,0,0,.594,1.446,2.149,2.149,0,0,0,1.626.618,1.873,1.873,0,0,0,1.254-.384,1.223,1.223,0,0,0,.45-.972.969.969,0,0,0-.222-.624,3.2,3.2,0,0,0-.738-.612l-2.088-1.38a2.272,2.272,0,0,1-1.164-1.92,1.221,1.221,0,0,1,.024-.24,2.144,2.144,0,0,1,.738-1.524,2.63,2.63,0,0,1,1.782-.576,13.712,13.712,0,0,1,1.632.12h.756l-.156,1.764h-.12a1.23,1.23,0,0,0-.462-1,1.883,1.883,0,0,0-1.23-.378,1.565,1.565,0,0,0-1.356.576.9.9,0,0,0-.216.552.942.942,0,0,0,.108.468,2.1,2.1,0,0,0,.732.672l2.292,1.488a2.132,2.132,0,0,1,1.08,1.848,2.325,2.325,0,0,1-.87,1.95,3.656,3.656,0,0,1-2.31.678,5.444,5.444,0,0,1-1.506-.2,2.253,2.253,0,0,1-1.014-.534A1.6,1.6,0,0,1-104.008,176.774Z" fill="#212121"/>
    <path id="Path_29" data-name="Path 29" d="M-97.084,177.77a.728.728,0,0,0,.534-.222.772.772,0,0,0,.234-.534v-6.66a.751.751,0,0,0-.234-.528.738.738,0,0,0-.534-.216h-.156v-.12h3.648l-.012.12h-.144a.759.759,0,0,0-.54.216.7.7,0,0,0-.228.528v6.66a.719.719,0,0,0,.228.534.748.748,0,0,0,.54.222h.144l.012.12H-97.24v-.12Z" fill="#212121"/>
    <path id="Path_30" data-name="Path 30" d="M-84.892,170.618a3.952,3.952,0,0,1,1.236,3.072,3.952,3.952,0,0,1-1.236,3.072,4.8,4.8,0,0,1-3.36,1.128h-4.356v-.12h.156a.728.728,0,0,0,.534-.222.777.777,0,0,0,.234-.534v-6.72a.613.613,0,0,0-.234-.486.8.8,0,0,0-.534-.2h-.156v-.12h4.356A4.8,4.8,0,0,1-84.892,170.618Zm-3.516,6.756a2.529,2.529,0,0,0,1.494-.444,2.786,2.786,0,0,0,.966-1.278,4.84,4.84,0,0,0,.336-1.818,6.094,6.094,0,0,0-.2-1.674,3.561,3.561,0,0,0-.557-1.17,2.41,2.41,0,0,0-2.04-1h-1.476v7.38Z" fill="#212121"/>
    <path id="Path_31" data-name="Path 31" d="M-82.756,177.77a.726.726,0,0,0,.533-.222.778.778,0,0,0,.235-.534V170.33a.667.667,0,0,0-.18-.456.878.878,0,0,0-.588-.264h-.157v-.12h4.6a4.36,4.36,0,0,0,.971-.09,4.145,4.145,0,0,0,.469-.126v2.1l-.121-.012v-.132a1.115,1.115,0,0,0-.551-1.056,1.3,1.3,0,0,0-.624-.168h-2.016V173.5H-78.6a1.016,1.016,0,0,0,.731-.306,1,1,0,0,0,.289-.726v-.108h.12v2.772h-.12v-.1a1,1,0,0,0-.283-.732,1,1,0,0,0-.714-.3h-1.607v3.372h1.571a2.2,2.2,0,0,0,1.471-.5,2.977,2.977,0,0,0,.881-1.428h.12l-.551,2.448h-6.217v-.12Z" fill="#212121"/>
    <path id="Path_32" data-name="Path 32" d="M-66.088,169.61a.7.7,0,0,0-.637.36.761.761,0,0,0-.108.36v6.192a7.291,7.291,0,0,0,.108,1.356l.037.18H-66.8l-6.06-5.772v4.764a.684.684,0,0,0,.215.51.71.71,0,0,0,.516.21h.229v.12h-3.637v-.12h.217a.722.722,0,0,0,.527-.21.7.7,0,0,0,.216-.522V170.81a6.667,6.667,0,0,0-.108-1.32l-.024-.18h.108l6.06,5.772v-4.74a.737.737,0,0,0-.228-.522.714.714,0,0,0-.516-.21H-69.5v-.12h3.637v.12Z" fill="#212121"/>
    <path id="Path_33" data-name="Path 33" d="M-64.913,176.774a2.789,2.789,0,0,1,.372-1.476h.108a1.546,1.546,0,0,0-.012.192,2.02,2.02,0,0,0,.594,1.446,2.149,2.149,0,0,0,1.626.618,1.873,1.873,0,0,0,1.254-.384,1.223,1.223,0,0,0,.45-.972.969.969,0,0,0-.222-.624,3.218,3.218,0,0,0-.737-.612l-2.089-1.38a2.272,2.272,0,0,1-1.164-1.92,1.151,1.151,0,0,1,.025-.24,2.139,2.139,0,0,1,.737-1.524,2.631,2.631,0,0,1,1.783-.576,13.711,13.711,0,0,1,1.631.12h.756l-.156,1.764h-.12a1.23,1.23,0,0,0-.462-1,1.883,1.883,0,0,0-1.23-.378,1.565,1.565,0,0,0-1.356.576.9.9,0,0,0-.216.552.942.942,0,0,0,.108.468,2.094,2.094,0,0,0,.733.672l2.292,1.488a2.133,2.133,0,0,1,1.079,1.848,2.325,2.325,0,0,1-.87,1.95,3.656,3.656,0,0,1-2.31.678,5.431,5.431,0,0,1-1.505-.2,2.251,2.251,0,0,1-1.015-.534A1.6,1.6,0,0,1-64.913,176.774Z" fill="#212121"/>
    <path id="Path_34" data-name="Path 34" d="M-57.988,177.77a.726.726,0,0,0,.533-.222.778.778,0,0,0,.235-.534v-6.66a.756.756,0,0,0-.235-.528.736.736,0,0,0-.533-.216h-.157v-.12H-54.5l-.011.12h-.144a.757.757,0,0,0-.54.216.7.7,0,0,0-.228.528v6.66a.715.715,0,0,0,.228.534.746.746,0,0,0,.54.222h.144l.011.12h-3.648v-.12Z" fill="#212121"/>
    <path id="Path_35" data-name="Path 35" d="M-50.356,177.77a.726.726,0,0,0,.533-.222.778.778,0,0,0,.235-.534v-6.648a.778.778,0,0,0-.235-.534.726.726,0,0,0-.533-.222h-.157v-.12h3.648l-.011.12h-.145a.748.748,0,0,0-.54.222.719.719,0,0,0-.228.534v7.008h1.572a2.194,2.194,0,0,0,1.47-.5,2.979,2.979,0,0,0,.882-1.428h.12l-.551,2.448h-6.217v-.12Z" fill="#212121"/>
    <path id="Path_36" data-name="Path 36" d="M-34.769,177.77h.108v.12h-3.828v-.12h.108a.463.463,0,0,0,.39-.162.509.509,0,0,0,.126-.306.744.744,0,0,0-.06-.288l-.588-1.476h-2.808l-.624,1.476a.825.825,0,0,0-.06.294.491.491,0,0,0,.132.3.481.481,0,0,0,.4.162h.1v.12h-2.568v-.12h.108a1.054,1.054,0,0,0,.552-.168,1.277,1.277,0,0,0,.456-.5l2.772-6.276a6.349,6.349,0,0,0,.6-1.572h.108l3.564,7.824a1.307,1.307,0,0,0,.456.522A1.046,1.046,0,0,0-34.769,177.77Zm-6.348-2.736h2.4l-1.164-2.952Z" fill="#212121"/>
    <path id="Path_37" data-name="Path 37" d="M-23.669,177.77h.192v.12h-3.6v-.108h.181a.5.5,0,0,0,.347-.168.418.418,0,0,0,.12-.348l-.467-4.356-2.257,3.888a2.784,2.784,0,0,0-.456,1.332h-.12l-3.084-5.184-.468,4.32a.435.435,0,0,0,.12.354.449.449,0,0,0,.348.162h.18v.108h-2.508v-.12h.192a.878.878,0,0,0,.582-.2.836.836,0,0,0,.294-.552l1-7.692h.108l3.72,6.12,3.576-6.12h.108l1.02,7.692a.885.885,0,0,0,.306.552A.861.861,0,0,0-23.669,177.77Z" fill="#212121"/>
    <path id="Path_38" data-name="Path 38" d="M-14.741,177.77h.108v.12h-3.828v-.12h.108a.463.463,0,0,0,.39-.162.509.509,0,0,0,.126-.306.744.744,0,0,0-.06-.288l-.588-1.476h-2.808l-.624,1.476a.8.8,0,0,0-.06.294.491.491,0,0,0,.132.3.481.481,0,0,0,.4.162h.1v.12h-2.568v-.12h.108a1.054,1.054,0,0,0,.552-.168,1.277,1.277,0,0,0,.456-.5l2.772-6.276a6.348,6.348,0,0,0,.6-1.572h.108l3.564,7.824a1.306,1.306,0,0,0,.456.522A1.046,1.046,0,0,0-14.741,177.77Zm-6.348-2.736h2.4l-1.164-2.952Z" fill="#212121"/>
    <path id="Path_39" data-name="Path 39" d="M-5.2,169.61a.7.7,0,0,0-.636.36.75.75,0,0,0-.108.36v6.192a7.206,7.206,0,0,0,.108,1.356l.036.18h-.108l-6.06-5.772v4.764a.685.685,0,0,0,.216.51.709.709,0,0,0,.516.21h.228v.12h-3.637v-.12h.217a.725.725,0,0,0,.528-.21.7.7,0,0,0,.215-.522V170.81a6.753,6.753,0,0,0-.107-1.32l-.024-.18h.108l6.06,5.772v-4.74a.741.741,0,0,0-.228-.522.715.715,0,0,0-.517-.21h-.215v-.12h3.636v.12Z" fill="#212121"/>
    <path id="Path_40" data-name="Path 40" d="M-1.025,176.774A2.789,2.789,0,0,1-.653,175.3h.108a1.376,1.376,0,0,0-.013.192,2.021,2.021,0,0,0,.6,1.446,2.149,2.149,0,0,0,1.626.618,1.875,1.875,0,0,0,1.254-.384,1.226,1.226,0,0,0,.45-.972.975.975,0,0,0-.222-.624,3.227,3.227,0,0,0-.738-.612l-2.089-1.38a2.272,2.272,0,0,1-1.164-1.92,1.223,1.223,0,0,1,.025-.24A2.144,2.144,0,0,1-.083,169.9a2.628,2.628,0,0,1,1.782-.576,13.726,13.726,0,0,1,1.632.12h.755l-.155,1.764h-.12a1.233,1.233,0,0,0-.462-1,1.885,1.885,0,0,0-1.23-.378,1.564,1.564,0,0,0-1.356.576.9.9,0,0,0-.217.552.952.952,0,0,0,.108.468,2.1,2.1,0,0,0,.733.672l2.292,1.488a2.133,2.133,0,0,1,1.079,1.848,2.327,2.327,0,0,1-.869,1.95,3.656,3.656,0,0,1-2.31.678,5.433,5.433,0,0,1-1.506-.2,2.242,2.242,0,0,1-1.014-.534A1.579,1.579,0,0,1-1.025,176.774Z" fill="#212121"/>
    <path id="Path_41" data-name="Path 41" d="M14.167,177.77h.107v.12H10.447v-.12h.108a.462.462,0,0,0,.389-.162.509.509,0,0,0,.126-.306.761.761,0,0,0-.059-.288l-.589-1.476H7.615l-.624,1.476a.8.8,0,0,0-.06.294.491.491,0,0,0,.132.3.479.479,0,0,0,.395.162h.1v.12H4.986v-.12h.109a1.051,1.051,0,0,0,.551-.168,1.279,1.279,0,0,0,.457-.5l2.772-6.276a6.392,6.392,0,0,0,.6-1.572h.108l3.563,7.824a1.308,1.308,0,0,0,.457.522A1.046,1.046,0,0,0,14.167,177.77Zm-6.349-2.736h2.4l-1.164-2.952Z" fill="#212121"/>
    <path id="Path_42" data-name="Path 42" d="M17.718,170.018h-.551v7a.767.767,0,0,0,.233.534.729.729,0,0,0,.535.222h.155v.12H14.442v-.12H14.6a.73.73,0,0,0,.66-.372.838.838,0,0,0,.108-.372v-6.66a.772.772,0,0,0-.234-.534.728.728,0,0,0-.534-.222h-.156v-.12h4.116a3.635,3.635,0,0,1,1.968.5,1.8,1.8,0,0,1,.648.7,2.5,2.5,0,0,1,.241,1.176,2.3,2.3,0,0,1-.505,1.4,1.98,1.98,0,0,1-1.464.768,2.373,2.373,0,0,1,1.224,1.056,9.117,9.117,0,0,0,1.92,2.472,1.542,1.542,0,0,0,.78.2v.12H22.194a4.706,4.706,0,0,1-1.734-.276,2.143,2.143,0,0,1-1.085-.972q-.229-.4-1-2.052-.336-.732-.815-.8v-.12h.372a1.5,1.5,0,0,0,.953-.324,1.69,1.69,0,0,0,.558-1.056,2.254,2.254,0,0,0,.048-.4,2.09,2.09,0,0,0-.4-1.422,1.35,1.35,0,0,0-1.02-.45Z" fill="#212121"/>
    <path id="Path_43" data-name="Path 43" d="M23.383,177.77a.728.728,0,0,0,.534-.222.777.777,0,0,0,.234-.534v-6.66a.755.755,0,0,0-.234-.528.738.738,0,0,0-.534-.216h-.156v-.12h3.648l-.012.12h-.144a.759.759,0,0,0-.54.216.7.7,0,0,0-.228.528v6.66a.715.715,0,0,0,.228.534.748.748,0,0,0,.54.222h.144l.012.12H23.227v-.12Z" fill="#212121"/>
  </g>
</svg>
